/* XPM */
static char *_6a257e44ed14839bad15713adf7156dKHuDuF5LZSFqxpd4[] = {
/* columns rows colors chars-per-pixel */
"32 32 13 1 ",
"  c gray19",
". c #485050",
"X c #984838",
"o c #D85838",
"O c #F89038",
"+ c #F8D038",
"@ c #787880",
"# c #40B088",
"$ c #70C8A0",
"% c #88D8B8",
"& c #A0A0C0",
"* c #D8C8F0",
"= c #F8F8F8",
/* pixels */
"$$$$$$$$$$$$$$$$$$$$$$$$$$$$$$$$",
"$$$$$$$$$$$$$$$$$$$$$$$$$$$$$$$$",
"$$$$$$$$$$$$$$$$$$$$$$$$$$$$$$$$",
"$$$$$#$$$$$$$$$$$$$$$#$$$$$$$$$$",
"$$#$$#$$#$$$$$$$$$#$$#$$#$$$$$$$",
"$$$#$$$#$$$$$$$$$$$#$$$#$$$$$$$$",
"$$$$$$$$$$$$$$$$$$$$$$$$$$$$$$$$",
"$$$$$$$$$$$$$      $$$$$$$$$$$$$",
"$$$$$$$$$$$  OOOOOO  $$$$$$$$$$$",
"$$$#$$$$$$ OOOOOOOOOo $$$$$$$$$$",
"#$$#$$#$$ O++OOOOOOOOo $$$$$$$$$",
"$#$$$#$$ O+==+OOOOOOOoo $$$$$$$$",
"$$$$$$$$ O+==+OOOOOOOoo $$$$$$$$",
"$$$$$$$ OOO++OOOOOOOOooo $$$%$$$",
"$$$$$$$ OOOOOOOOOOOOoooo %$$%$$%",
"$$$$$$$ OOOOOOOOOOOOoooo $%$$$%$",
"$$$$$$$ XOOOOOOOOOOooooX $%$$$%$",
"$$$$$$$ .XOO...OOoooooX. %$$%$$%",
"$$$$$$$ ....&=&.oooX.... $$$%$$$",
"$$$$$$$$ @..===.......@ $$$$$$$$",
"$#$$$#$$ *=@&=&.....@*& $$$$$$$$",
"#$$#$$#$$ *=@@@******& $$$$$$$$$",
"$$$#$$$$$$ &*******&& $$$$$$$$$$",
"$$$$$$$$$$$  &&&&&&  $$$$$$$$$$$",
"$$$$$$$$$$$$$      $$$$$$$$$$$$$",
"$$$$$$$$$$$$$$$$$$$$$$$$$$$$$$$$",
"$$$#$$$#$$$$$$$$$$$#$$$#$$$$$$$$",
"$$#$$#$$#$$$$$$$$$#$$#$$#$$$$$$$",
"$$$$$#$$$$$$$$$$$$$$$#$$$$$$$$$$",
"$$$$$$$$$$$$$$$$$$$$$$$$$$$$$$$$",
"$$$$$$$$$$$$$$$$$$$$$$$$$$$$$$$$",
"$$$$$$$$$$$$$$$$$$$$$$$$$$$$$$$$"
};
