/* XPM */
static char *f5ec056837b44041fbc267978e2b2c67nEyKm08zgr0b1hr7[] = {
/* columns rows colors chars-per-pixel */
"32 32 13 1 ",
"  c black",
". c #682828",
"X c #383878",
"o c #784040",
"O c #C03838",
"+ c #A87840",
"@ c #F86848",
"# c #D89070",
"$ c #70A0C0",
"% c #F8C090",
"& c #B0B0D0",
"* c #E8E8F8",
"= c None",
/* pixels */
"==========............==========",
"==========............==========",
"========..O@@@@@@@@@@O..========",
"========..@@@@@@@@@@@@..========",
"========..@@@@@@@@@@@@..========",
"======..OO@@@@@@@@@@@@OO..======",
"======  OOO@@@@@@@@@@OOO  ======",
"======  OOO@@@@@@@@@@OOO  ======",
"======  OOOOOO****OOOOOO  ======",
"======  OOOOOO****OOOOOO  ======",
"===== ++..&OO&OOOO&OO&..++ =====",
"===== ##  X**********X  ## =====",
"===== ##  X**********X  ## =====",
"======  oo#XXXXXXXXXX#oo  ======",
"======  ###%% %%%% %%###  ======",
"======  ###%% %%%% %%###  ======",
"========oo###o%%%%o###oo========",
"========oo###o%%%%o###oo========",
"======  XX oo######oo XX  ======",
"=====o%%XXXOO      OOXXX%%o=====",
"=====o%%XXXOO      OOXXX%%o=====",
"=====o####XOOO&&&&OOOX####o=====",
"======oo   OO@****@OO   oo======",
"======oo   OO@****@OO   oo======",
"========XX$XX      XX$XX========",
"========XX$XX      XX$XX========",
"========   $$$    $$$   ========",
"========  XXX ==== XXX  ========",
"========  XXX ==== XXX  ========",
"==========   ======   ==========",
"================================",
"================================"
};
