/* XPM */
static char *_dc728d1b8434c5ed4b4bf500b2cc861syapHusSqvz8XxGw[] = {
/* columns rows colors chars-per-pixel */
"32 32 11 1 ",
"  c gray19",
". c #585858",
"X c #40B088",
"o c #70C8A0",
"O c #0098C8",
"+ c #18B0F8",
"@ c #30D0F8",
"# c #68E8E8",
"$ c #88D8B8",
"% c #A8F8F8",
"& c #E8F8F8",
/* pixels */
"oooooooooooooooooooooooooooooooo",
"oooooooooooooooooooooooooooooooo",
"oooooooooooooooooooooooooooooooo",
"oooooXoooooooooooooooXoooooooooo",
"ooXooXooXoooooooooXooXooXooooooo",
"oooXoooXoooooooooooXoooXoooooooo",
"oooooooooooooooooooooooooooooooo",
"oooooooooooooooooooooooooooooooo",
"oooooooooooooooooooooooooooooooo",
"oooXooooooo..........ooooooooooo",
"XooXooXooo.##%%%%%%## Xooooooooo",
"oXoooXooo.%#%%%%%%%%@% ooooooooo",
"oooooooo.%%%@@@@@@@@#%% oooooooo",
"ooooooo.%%%#&%%%%%%#@%%% ooo$ooo",
"ooooooo.@%#&&&%%%%###@%@ $oo$oo$",
"ooooooo.%@&&&&&%%#####@% o$ooo$o",
"oooooooo %@&&&&&#####@@ oo$ooo$o",
"ooooooooo %+++@@OOOO+@ oo$oo$oo$",
"oooooooooo %+@@@OOO+# oooooo$ooo",
"ooooooooooo &#@@OO+# ooooooooooo",
"oXoooXoooooo &#@O+# oXoooooooooo",
"XooXooXoooooo %#+# XooXooooooooo",
"oooXoooooooooo %@ oXoooooooooooo",
"ooooooooooooooo  ooooooooooooooo",
"oooooooooooooooooooooooooooooooo",
"oooooooooooooooooooooooooooooooo",
"oooXoooXoooooooooooXoooXoooooooo",
"ooXooXooXoooooooooXooXooXooooooo",
"oooooXoooooooooooooooXoooooooooo",
"oooooooooooooooooooooooooooooooo",
"oooooooooooooooooooooooooooooooo",
"oooooooooooooooooooooooooooooooo"
};
