/* XPM */
static char *ebb336e60e1946eab8fb954bfec5cae9C5QdwLjC1KhpMKVC[] = {
/* columns rows colors chars-per-pixel */
"32 32 3 1 ",
"  c #40B088",
". c #70C8A0",
"X c #88D8B8",
/* pixels */
"................................",
"................................",
"................................",
"..... ............... ..........",
".. .. .. ......... .. .. .......",
"... ... ........... ... ........",
"................................",
"................................",
"................................",
"... ............... ............",
" .. .. ......... .. .. .........",
". ... ........... ... ..........",
"................................",
"............X...............X...",
".........X..X..X.........X..X..X",
"..........X...X...........X...X.",
"..........X...X...........X...X.",
".........X..X..X.........X..X..X",
"............X...............X...",
"................................",
". ... ........... ... ..........",
" .. .. ......... .. .. .........",
"... ............... ............",
"................................",
"................................",
"................................",
"... ... ........... ... ........",
".. .. .. ......... .. .. .......",
"..... ............... ..........",
"................................",
"................................",
"................................"
};
