/* XPM */
static char *b59c155d36664f3eb29c9816140b7814w6NU4Nrb07gIVSKP[] = {
/* columns rows colors chars-per-pixel */
"32 32 9 1 ",
"  c #583840",
". c #784848",
"X c #906868",
"o c #787880",
"O c #40B088",
"+ c #70C8A0",
"@ c #B89088",
"# c #D8C0A0",
"$ c #E8D0C0",
/* pixels */
"++++++++++++++++++++++++++++++++",
"++++++++++++++XXXX++++++++++++++",
"+++++++++++++@@$##X ++++++++++++",
"++++++++++++X$$$$@#X O++++++++++",
"++++++++++@@#$$$$$@#X ++O+++++++",
"+++++++++XXX@$$##$#@@X O++++++++",
"+++++++++X@##@#####@@@  ++++++++",
"++++++++X@####@####@@XXX +++++++",
"+++++++.@@####@@###XXX    ++++++",
"++++++.@@@#####@@###@@. .  +++++",
"+++++.X@@@####@X####@@X.   +++++",
"+++++.@@@XX##@@@####@@X.    ++++",
"++++ X@XXXXX@@#######XXX. . ++++",
"+++ .XXX..XX@########@XXX .. o++",
"+++ ..X...X@#####@@##@XXX. . oo+",
"++.... X..@#####@@XX@@XXXX.  oo+",
"+o.  ....X@####@@X@@@XX.XX...ooo",
"+o  . ..X@@@@@XXXX@@@X...XX.  oo",
"+o . ..XX@@@@XXX...XXX ...X.  oo",
"+o  . .X@@@@XXX.......  ....  oo",
"+o . ..XX@@X..........    ... oo",
"+o ..X@.XXX.........       .. oo",
"+o. .X@X.X..XXX.....       .  oo",
"+oo .X@@X..XXXXX....  .  .    oo",
"+oo .XX@....XXX..... . .  .  .oo",
"++o ..... ... . ....XXXX.  . ooo",
"++o .....  ..   ...XXXXX.    oo+",
"++o. ...   .    ....XXX.     oo+",
"+++o ...    .   .......     oo++",
"+++oo ..   .    ... ...    ooo++",
"++++oo   oo     ..  ...  oooo+++",
"+++++oooooooo          oooo+++++"
};
